<svg width="512" height="512" viewBox="0 0 512 512" xmlns="http://www.w3.org/2000/svg" style="background:#ffffff;"><rect width="512" height="512" fill="#ffffff" rx="40"/><g transform="translate(66, 20) scale(0.42)"><circle cx="390" cy="346" r="280" fill="none" stroke="#e53935" stroke-width="12"/><circle cx="390" cy="346" r="140" fill="none" stroke="#e53935" stroke-width="8"/><line x1="390" y1="66" x2="390" y2="206" stroke="#e53935" stroke-width="6"/><line x1="390" y1="486" x2="390" y2="626" stroke="#e53935" stroke-width="6"/><line x1="110" y1="346" x2="250" y2="346" stroke="#e53935" stroke-width="6"/><line x1="530" y1="346" x2="670" y2="346" stroke="#e53935" stroke-width="6"/><line x1="192" y1="148" x2="291" y2="247" stroke="#e53935" stroke-width="6"/><line x1="489" y1="445" x2="588" y2="544" stroke="#e53935" stroke-width="6"/><line x1="192" y1="544" x2="291" y2="445" stroke="#e53935" stroke-width="6"/><line x1="489" y1="247" x2="588" y2="148" stroke="#e53935" stroke-width="6"/><text x="210" y="270" font-family="Arial" font-size="48" font-weight="bold" fill="#1a237e" transform="rotate(-32, 210, 270)">शील</text><text x="340" y="145" font-family="Arial" font-size="48" font-weight="bold" fill="#1a237e">श्रम</text><text x="500" y="230" font-family="Arial" font-size="48" font-weight="bold" fill="#1a237e" transform="rotate(32, 500, 230)">ज्ञान</text><path d="M290,346 A100,100 0 0,1 490,346" fill="none" stroke="#e53935" stroke-width="8"/><g transform="translate(345, 275) scale(1.1)"><path d="M40,50 C20,30 10,15 40,0 C70,15 60,30 40,50 Z" fill="#ffffff" stroke="#e53935" stroke-width="5"/></g><g transform="translate(0, 320)"><path d="M390,260 C260,140 100,160 10,240 L10,500 C120,410 260,400 390,520 C520,400 660,410 770,500 L770,240 C680,160 520,140 390,260 Z" fill="#ffffff" stroke="#e53935" stroke-width="14"/><line x1="390" y1="260" x2="390" y2="520" stroke="#e53935" stroke-width="10"/><path d="M50,260 C130,205 240,205 350,275 M50,295 C130,240 240,240 350,310 M50,330 C130,275 240,275 350,345 M50,365 C130,310 240,310 350,380" fill="none" stroke="#1a237e" stroke-width="12"/><path d="M730,260 C650,205 540,205 430,275 M730,295 C650,240 540,240 430,310 M730,330 C650,275 540,275 430,345 M730,365 C650,310 540,310 430,380" fill="none" stroke="#1a237e" stroke-width="12"/></g></g><rect x="0" y="420" width="512" height="92" fill="#1F4E78"/><text x="256" y="475" font-family="Arial" font-size="32" font-weight="900" fill="#ffffff" text-anchor="middle" letter-spacing="2">SSS ENGLISH MEDIUM</text></svg>
